<svg width="85" height="36" viewBox="0 0 85 36" fill="none" xmlns="http://www.w3.org/2000/svg">
<path d="M10.656 26L6.672 19.16H4.032V26H1.848V9.272H7.248C8.512 9.272 9.576 9.488 10.44 9.92C11.32 10.352 11.976 10.936 12.408 11.672C12.84 12.408 13.056 13.248 13.056 14.192C13.056 15.344 12.72 16.36 12.048 17.24C11.392 18.12 10.4 18.704 9.072 18.992L13.272 26H10.656ZM4.032 17.408H7.248C8.432 17.408 9.32 17.12 9.912 16.544C10.504 15.952 10.8 15.168 10.8 14.192C10.8 13.2 10.504 12.432 9.912 11.888C9.336 11.344 8.448 11.072 7.248 11.072H4.032V17.408ZM28.1136 12.848V26H25.9296V24.056C25.5136 24.728 24.9296 25.256 24.1776 25.64C23.4416 26.008 22.6256 26.192 21.7296 26.192C20.7056 26.192 19.7856 25.984 18.9696 25.568C18.1536 25.136 17.5056 24.496 17.0256 23.648C16.5616 22.8 16.3296 21.768 16.3296 20.552V12.848H18.4896V20.264C18.4896 21.56 18.8176 22.56 19.4736 23.264C20.1296 23.952 21.0256 24.296 22.1616 24.296C23.3296 24.296 24.2496 23.936 24.9216 23.216C25.5936 22.496 25.9296 21.448 25.9296 20.072V12.848H28.1136ZM36.4571 26.216C35.4491 26.216 34.5451 26.048 33.7451 25.712C32.9451 25.36 32.3131 24.88 31.8491 24.272C31.3851 23.648 31.1291 22.936 31.0811 22.136H33.3371C33.4011 22.792 33.7051 23.328 34.2491 23.744C34.8091 24.16 35.5371 24.368 36.4331 24.368C37.2651 24.368 37.9211 24.184 38.4011 23.816C38.8811 23.448 39.1211 22.984 39.1211 22.424C39.1211 21.848 38.8651 21.424 38.3531 21.152C37.8411 20.864 37.0491 20.584 35.9771 20.312C35.0011 20.056 34.2011 19.8 33.5771 19.544C32.9691 19.272 32.4411 18.88 31.9931 18.368C31.5611 17.84 31.3451 17.152 31.3451 16.304C31.3451 15.632 31.5451 15.016 31.9451 14.456C32.3451 13.896 32.9131 13.456 33.6491 13.136C34.3851 12.8 35.2251 12.632 36.1691 12.632C37.6251 12.632 38.8011 13 39.6971 13.736C40.5931 14.472 41.0731 15.48 41.1371 16.76H38.9531C38.9051 16.072 38.6251 15.52 38.1131 15.104C37.6171 14.688 36.9451 14.48 36.0971 14.48C35.3131 14.48 34.6891 14.648 34.2251 14.984C33.7611 15.32 33.5291 15.76 33.5291 16.304C33.5291 16.736 33.6651 17.096 33.9371 17.384C34.2251 17.656 34.5771 17.88 34.9931 18.056C35.4251 18.216 36.0171 18.4 36.7691 18.608C37.7131 18.864 38.4811 19.12 39.0731 19.376C39.6651 19.616 40.1691 19.984 40.5851 20.48C41.0171 20.976 41.2411 21.624 41.2571 22.424C41.2571 23.144 41.0571 23.792 40.6571 24.368C40.2571 24.944 39.6891 25.4 38.9531 25.736C38.2331 26.056 37.4011 26.216 36.4571 26.216ZM47.0042 14.648V22.4C47.0042 23.04 47.1402 23.496 47.4122 23.768C47.6842 24.024 48.1562 24.152 48.8282 24.152H50.4362V26H48.4682C47.2522 26 46.3402 25.72 45.7322 25.16C45.1242 24.6 44.8202 23.68 44.8202 22.4V14.648H43.1162V12.848H44.8202V9.536H47.0042V12.848H50.4362V14.648H47.0042Z" fill="white"/>
<rect x="58" y="16" width="3" height="10" rx="1.5" fill="#21E14B"/>
<rect x="64" y="11" width="3" height="15" rx="1.5" fill="#21E14B"/>
<rect x="70" y="6" width="3" height="20" rx="1.5" fill="#21E14B"/>
<rect x="76" y="11" width="3" height="15" rx="1.5" fill="#21E14B"/>
<rect x="82" y="16" width="3" height="10" rx="1.5" fill="#21E14B"/>
</svg>
